<svg xmlns="http://www.w3.org/2000/svg" viewBox="0 0 370.31 263.33"><defs><style>.cls-1{fill:#fdcb47;}</style></defs><g id="Layer_2" data-name="Layer 2"><g id="Layer_1-2" data-name="Layer 1"><path d="M2,129.07q0-30.45,0-60.9c0-1.08.24-1.4,1.36-1.39,9.51,0,19-.16,28.54.08,11.49.28,23,.8,34.35,2.78a81.45,81.45,0,0,1,12.06,3,51.41,51.41,0,0,1,10.42,4.77,36.58,36.58,0,0,1,9.55,8,30.79,30.79,0,0,1,6.92,19.29,41.61,41.61,0,0,1-4.93,20.72,34.22,34.22,0,0,1-3.78,5.89c-2.12,2.57-3.92,5.45-6.5,7.56-2,1.63-3.89,3.37-6,4.92-1.81,1.36-3.76,2.51-5.52,3.93a4.07,4.07,0,0,1-.6.38,93.86,93.86,0,0,1-21.42,9.29,86.82,86.82,0,0,1-14.24,3.14c-.64.09-.68.38-.66.86l.33,13.89c.12,5,.21,10.06.37,15.09,0,1.12-.63,1-1.3,1H14c-3.56,0-7.12,0-10.67,0C2.19,191.41,2,191,2,190Q2,159.52,2,129.07ZM41.59,135c1.95-.83,3.91-1.31,5.82-2,3.73-1.32,6.67-3.78,9.72-6.12a14.26,14.26,0,0,0,3.17-4,20.4,20.4,0,0,0,2.23-3.79,17.07,17.07,0,0,0,1.1-6.78c-.1-2.24.31-4.55-.14-6.7-1-4.72-4.05-8-8.35-10a40.19,40.19,0,0,0-12.7-3.18c-.72-.08-.87.09-.87.77,0,3,0,6.08,0,9.12Z"/><path d="M237.09,117.42c3.07-.85,6.2-.51,9.28-.72,6-.4,12-.66,17.95-1,2.73-.14,2.78-.13,2.85,2.6.23,8.07.39,16.13.63,24.19,0,1.12-.3,1.37-1.38,1.37-9.47,0-18.93-.52-28.39-.69-.83,0-1,.2-1,1q0,8.7,0,17.39c0,.71.17,1,.93,1q10.31-.27,20.61-.47c5-.09,10.06-.11,15.1-.2.84,0,.83.43.88,1,.68,8.14.69,16.28.63,24.43,0,1,0,2.08,0,3.12,0,.76-.26,1-1,.94-11-.06-21.9.12-32.85-.11-7.83-.16-15.66-.32-23.48-.55-6.07-.17-12.13-.44-18.2-.64-.66,0-1-.21-.88-.89,0-.32,0-.64,0-1q0-58.46,0-116.9c0-2-.25-1.78,1.76-1.9,15.9-1,31.83-1.31,47.75-2.14,7.33-.39,14.67-.72,22-1.11,1.05-.06,1.48.1,1.57,1.34.65,8.74.53,17.49.57,26.23,0,1.06-.31,1.3-1.33,1.36-11,.7-22,.59-32.95.56-.83,0-1.2.13-1.19,1.1,0,6.67,0,13.34,0,20A6.15,6.15,0,0,0,237.09,117.42Z"/><path d="M302.1,192.07H301c-2.41,0-2.4,0-2.76-2.38q-1.74-11.19-3.53-22.35a30.79,30.79,0,0,1-.22-4.06c0-.66.3-.8.87-.83,3.15-.14,6.3-.26,9.45-.48a51.72,51.72,0,0,0,15.84-3.4,25.09,25.09,0,0,0,5.69-3.38,5,5,0,0,0,.65-6.94,16.67,16.67,0,0,0-4.22-3.27c-3.19-2-6.43-3.94-9.68-5.85a48.79,48.79,0,0,1-5-2.82c-2-1.5-4.12-2.8-6.16-4.25a43.22,43.22,0,0,1-6.38-5.92c-4.06-4.3-6.57-9.32-6.46-15.44.06-3.31-.07-6.63,1.17-9.8a51.8,51.8,0,0,1,3.89-7.08c1.21-2.07,3.4-3.28,4.33-5.51a.91.91,0,0,1,.4-.44c2.51-1.11,4-3.45,6.17-5a73.41,73.41,0,0,1,12.25-7.31,102.21,102.21,0,0,1,15.92-5.85,144.87,144.87,0,0,1,21.75-4c3.1-.39,3.11-.42,3.6,2.59q1.71,10.52,3.4,21a42.2,42.2,0,0,1,.15,5c0,.68-.36.76-.9.79-3.35.15-6.7.27-10,.49-5.72.36-11.36,1.12-16.55,3.83A5.93,5.93,0,0,0,331.4,106c.13.71.89,1.23.69,2.07,0,.06.12.21.21.24,2.6.81,4.5,2.82,6.89,4s4.78,2.38,7.18,3.58a79.48,79.48,0,0,1,7.24,3.7c1.69,1.08,3.45,2.07,5.1,3.26a40.11,40.11,0,0,1,6.85,6.47c2.68,3.12,4.8,6.66,4.64,11.07a38.43,38.43,0,0,0,0,4.8c.52,5.49-1.29,10.38-3.88,15-.7,1.26-1.71,2.39-2.53,3.58-2.23,3.29-5.31,5.72-8,8.53a38,38,0,0,1-4.71,3.59c-4.28,3.21-9.21,5.22-13.95,7.55a60.87,60.87,0,0,1-8.83,3.32,152.36,152.36,0,0,1-18.94,4.6A30,30,0,0,1,302.1,192.07Z"/><path d="M306.71,263.05c-6.65,0-12.53-1.58-17.32-6a19.27,19.27,0,0,1-6.26-13.43c-.82-13.77,8.62-24.47,21.79-26.47,6.37-1,12.51-.48,18.16,2.86a19,19,0,0,1,9.46,14.74,24.72,24.72,0,0,1-6.47,20.52,23.65,23.65,0,0,1-13.21,7.21A38.08,38.08,0,0,1,306.71,263.05Zm1.94-41.43a20.25,20.25,0,0,0-2.21.11c-13,1.73-18.26,13.19-16.23,23.29,2,9.9,11.42,14.6,20.61,12.74,13.49-2.72,17.66-16.27,13.9-26.29C322.38,225.24,316.47,221.61,308.65,221.62Z"/><path d="M6.24,217.63c7.17.14,14.58.46,21.76,2.62a29.59,29.59,0,0,1,7.32,3.18c5.84,3.69,7.82,8.7,6.12,15.39-1.57,6.23-5.63,10.54-10.8,13.94a52.93,52.93,0,0,1-20.24,7.53,57,57,0,0,1-8.45.82c-.73,0-.87-.17-.84-.85.49-11.38.48-22.76.37-34.14,0-2.52-.11-5-.23-7.55,0-.73.14-1,.9-1C3.43,217.67,4.71,217.63,6.24,217.63ZM7.57,239v15.47c0,.53-.17,1.13.8,1a46.09,46.09,0,0,0,11.81-2.79c4.9-2,9.25-4.71,12.13-9.32a11.11,11.11,0,0,0,1.59-9c-1.14-4.18-4.18-6.7-7.9-8.49-5.56-2.68-11.55-3.18-17.6-3.36-.86,0-.84.45-.84,1.05Q7.58,231.23,7.57,239Z"/><path d="M292.12,44.94a20.73,20.73,0,0,1-12.25-4.72,18.25,18.25,0,0,1-6.8-14,23.07,23.07,0,0,1,5.29-16.1A23.31,23.31,0,0,1,292.86,2a25.25,25.25,0,0,1,12.88.79c7.38,2.6,11.74,7.84,12.64,15.63,1.1,9.51-2.19,17.23-10.15,22.75C304.62,43.72,299.71,44.94,292.12,44.94Zm4.64-38.72c-1.05.11-2.21.11-3.36.31C279.66,9,276.28,24.71,281.6,33.24s17.51,9.29,24.85,2.89c4.47-3.9,6-9,5.95-14.79C312.28,12.47,305.7,6.06,296.76,6.22Z"/><path d="M366.56,45.5c-11.35-11.34-22.62-22.26-33.85-33.82,0,1.75,0,3.19,0,4.62-.13,9-.29,18.05-.39,27.08,0,1-.29,1.14-1.16,1-1.34-.19-2.7-.28-4-.35-.64,0-.78-.27-.75-.89q.82-14.46,1.58-28.93c.22-4.19.39-8.38.58-12.57,0-.46-.06-.95.21-1.27l33.33,32.77c0-1.67,0-3.36,0-5q.12-12.17.25-24.33c0-1.56,0-1.56,1.61-1.47,1.12.07,2.24.2,3.35.18.88,0,1.06.31,1,1.12-.25,4.14-.5,8.28-.67,12.43-.24,5.42-.4,10.84-.59,16.27C366.86,36.56,366.72,40.82,366.56,45.5Z"/><path d="M79.51,0l33,33.24.34-.07c0-1.6,0-3.19,0-4.79q.1-12.28.24-24.56c0-1.62,0-1.62,1.69-1.51,1.07.06,2.15.21,3.23.17s1.09.37,1,1.2c-.25,4-.5,8-.65,12.06-.31,8.14-.73,16.27-.83,24.41a45,45,0,0,1-.21,5c-11.36-11-22.5-22-33.53-33.21-.38.42-.24.87-.25,1.27q-.16,13.65-.31,27.32c0,1.07-.11,2.15-.12,3.23,0,.53-.21.68-.73.62-1.46-.15-2.93-.29-4.41-.37-.59,0-.73-.29-.7-.83.21-4,.4-8.05.61-12.07s.42-7.81.63-11.72C78.85,13.06,79.17,6.7,79.51,0Z"/><path d="M134.16,2.52c7.22.13,14.42.43,21.4,2.61a30.09,30.09,0,0,1,5.7,2.41c6.36,3.56,8.59,9,6.6,16-1.55,5.47-5.12,9.39-9.68,12.51a49.44,49.44,0,0,1-19.59,7.5,53.4,53.4,0,0,1-7.36.78c-1,0-1.45-.16-1.39-1.32.43-9.54.26-19.08.27-28.63,0-3.59.12-7.18-.23-10.77-.09-.89.23-1.1,1-1.06C132,2.56,133.08,2.52,134.16,2.52ZM136,23.05c0,4.91,0,9.83,0,14.74,0,.83.17,1.07,1.06,1a39.37,39.37,0,0,0,12.08-3.13c4.81-2.16,8.92-5.14,11.54-9.85s2-9.67-1.48-12.95a15,15,0,0,0-4.65-2.89c-5.57-2.27-11.44-2.66-17.37-2.74-1,0-1.19.32-1.18,1.23C136,13.3,136,18.17,136,23.05Z"/><path d="M178.74,215.32c2.29,3.46,4.24,6.84,6.22,10.2,6.16,10.44,12.06,21,18.35,31.4.59,1,1.86,2,1.59,2.9s-1.7,1.29-2.66,1.86-2,1.85-2.91,1.53-1.17-1.78-1.7-2.76c-2.3-4.15-4.61-8.29-6.88-12.45a1.52,1.52,0,0,0-1.59-.92q-10.65.43-21.3.77c-.81,0-1,.55-1.24,1.07-2.12,4.5-4.24,9-6.31,13.53-.4.88-.72,1.17-1.62.54-1.28-.89-2.64-1.65-4-2.42-.55-.31-.59-.56-.29-1.1,8-14,15.45-28.34,23.31-42.44C178,216.51,178.33,216,178.74,215.32Zm-9.16,28.18,18.45-.75-9.42-16.87C175.4,231.79,172.58,237.62,169.58,243.5Z"/><path d="M251.83,257.91c5.2,0,10.19,0,15.18,0,3.75,0,7.51-.12,11.26-.25.83,0,1.15.16,1.06,1-.11,1.19-.11,2.39-.16,3.59,0,.6-.21.91-.92.89q-9.22-.24-18.44-.42c-3.79-.07-7.59-.09-11.39-.12-2.54,0-5.09,0-8,0,10.64-13.33,20.28-26.9,30.35-40.43-3.12-.1-6-.21-8.91-.27-5.71-.12-11.42-.23-17.13-.3-.79,0-1.06-.24-1-1,.12-1.15.18-2.31.22-3.46,0-.55.25-.66.75-.63,9,.56,18.1.82,27.15,1.2,3.14.13,6.3,0,9.57.43C271.25,231.19,261.64,244.59,251.83,257.91Z"/><path d="M214.51,41.48c0,.34-.22.44-.41.56-1.46.91-2.93,1.78-4.37,2.72-.72.47-.88,0-1.13-.51-2.48-4.41-5-8.82-7.41-13.25a1.93,1.93,0,0,0-2.05-1.19c-6.46.29-12.92.52-19.38.74a1.53,1.53,0,0,0-1.53,1c-1.95,4.19-4,8.34-5.91,12.53-.41.88-.74,1.12-1.61.51A40.59,40.59,0,0,0,167,42.4c-.55-.31-.56-.57-.26-1.1q11-19.68,21.95-39.37c.13-.25.29-.48.41-.73.42-.87.78-.69,1.2,0,2.25,3.72,4.53,7.42,6.77,11.14,5.73,9.53,11.12,19.27,17.13,28.64C214.31,41.17,214.42,41.34,214.51,41.48ZM189.56,10.2c-.39.69-.68,1.19-.95,1.7-2.34,4.52-4.65,9.06-7.05,13.56-.55,1-.18,1.07.69,1,5-.23,10-.47,15.05-.64,1.09,0,1-.37.55-1.09-2.23-3.9-4.43-7.82-6.65-11.74C190.7,12.14,190.18,11.26,189.56,10.2Z"/><path d="M68.19,10.44A128.69,128.69,0,0,1,67.73,26c-.7,6.11-2.66,11.56-7.8,15.42a18.15,18.15,0,0,1-9.53,3.46,20.75,20.75,0,0,1-10.9-1.49c-5.14-2.39-7.87-6.68-9.17-12a54.53,54.53,0,0,1-1.16-11.88c-.11-5.11,0-10.23,0-15.34,0-1,.31-1.41,1.38-1.33a37.63,37.63,0,0,0,3.83,0c.76,0,1.07.16,1,1-.5,6.18-.26,12.37-.2,18.56a25.4,25.4,0,0,0,2.1,11c2.69,5.59,8,7.54,13.42,6.7,5.94-.91,9.63-4.84,10.84-10.9a67.78,67.78,0,0,0,.89-11.55A132,132,0,0,0,62,3.08C62,2.25,62.11,1.93,63,2c1.4.06,2.8.05,4.2,0,.78,0,1,.22,1,1C68.17,5.93,68.19,8.89,68.19,10.44Z"/><path d="M50.83,239.79c0-7.15,0-14.3,0-21.45,0-.67.31-.69.79-.71,3.71-.16,7.42-.31,11.13-.49,3.47-.17,6.94-.32,10.4-.58.87-.07,1,.18,1.06.93,0,1.07.07,2.15.19,3.22.08.71,0,1-.84,1-4.83.06-9.67.19-14.5.25-.88,0-1.26.15-1.25,1.16.06,4.52.05,9,0,13.55,0,.89.22,1.18,1.13,1.13,4.06-.23,8.13-.37,12.2-.61.71-.05.91.07.91.77,0,1.11.08,2.23.17,3.34.07.74-.11,1.06-1,1-3.79-.12-7.58-.16-11.38-.25-2.06,0-2.06-.07-2.06,2,0,4,0,8.08,0,12.11,0,.81.18,1.09,1,1.1,5.15,0,10.31.06,15.46-.11.82,0,1,.2,1.05,1,0,1.28.09,2.56.21,3.82.08.82-.38.81-1,.8L63,262.43c-3.56-.09-7.11-.22-10.66-.27-1.11,0-1.52-.21-1.5-1.51.09-6.95,0-13.91,0-20.86Z"/><path d="M142.4,261.78c-6.52,0-12.9-.76-18.76-3.87-4.92-2.61-8.56-6.36-9.93-11.94a14.36,14.36,0,0,1,1.18-9.32c2.71-6.25,7.55-10.48,13.36-13.73a57.78,57.78,0,0,1,18.36-6.16c.49-.09.72,0,.82.5.26,1.4.57,2.8.85,4.21.14.71-.38.64-.81.69a43.44,43.44,0,0,0-13.42,3.66c-4.43,2.06-8.42,4.73-11.18,8.91-4.67,7.05-2.6,15.15,4.86,19.09a28.07,28.07,0,0,0,10.53,2.88,38.18,38.18,0,0,0,11.44-.52c.74-.15.91.1,1,.71.16,1.18.32,2.37.49,3.55.07.52-.05.76-.66.85A58,58,0,0,1,142.4,261.78Z"/><path d="M99.17,249.07a5.2,5.2,0,0,0-2.52-4.45,44.52,44.52,0,0,0-6.78-3.53,28,28,0,0,1-6.14-3.69c-3.34-2.8-3.79-6.43-1.23-10a19.45,19.45,0,0,1,6-5.19A42.65,42.65,0,0,1,101,217.41c.79-.19,1.33-.1,1.54.87a15.09,15.09,0,0,0,.92,2.83c.36.86.14,1.15-.76,1.29a33.5,33.5,0,0,0-8,2.3A14.47,14.47,0,0,0,89.56,228c-1.8,1.94-1.68,4.14.35,5.83a28.15,28.15,0,0,0,5.69,3.26,47.44,47.44,0,0,1,8,4.46,7.2,7.2,0,0,1,2.23,9.37c-1.56,3.28-4.26,5.42-7.29,7.21a44.47,44.47,0,0,1-13.08,4.77.86.86,0,0,1-1.16-.65,31.91,31.91,0,0,0-1.28-3.09c-.42-.84-.13-1.09.68-1.23A38.84,38.84,0,0,0,93,255.2a13,13,0,0,0,5-3.41A4.25,4.25,0,0,0,99.17,249.07Z"/><path d="M361.3,221.59a35.78,35.78,0,0,0-9.3,2.81,12,12,0,0,0-4.68,3.43,3.7,3.7,0,0,0,.37,5.36,15.92,15.92,0,0,0,4.17,2.76c2.55,1.31,5.15,2.53,7.59,4.05,5.48,3.42,6.31,8.66,2.2,13.66a23,23,0,0,1-7.57,5.75A43.41,43.41,0,0,1,343.73,263c-.67.15-1,.12-1.23-.6-.36-1.13-.84-2.23-1.3-3.33-.26-.6-.22-.85.52-1a41.31,41.31,0,0,0,8.56-2.55,15.81,15.81,0,0,0,4.75-3c2.62-2.51,2.48-5.66-.36-7.93a26.78,26.78,0,0,0-5.06-2.91,36.16,36.16,0,0,1-7.31-4.28c-3.72-3-4.17-7.16-1.21-11a23.23,23.23,0,0,1,7.75-6.09,43,43,0,0,1,9.82-3.64c.82-.2,1.23,0,1.45.84C360.44,218.91,360.89,220.22,361.3,221.59Z"/><path d="M243.22,45c-6.33,0-11.69-.63-16.72-2.92a19.35,19.35,0,0,1-9.3-8.32c-2.74-5-2-9.92.47-14.73a27.56,27.56,0,0,1,10-10.43,51,51,0,0,1,18.12-6.79c.87-.17,1.22.05,1.32.9a28.21,28.21,0,0,0,.57,3.18c.17.7.07.94-.71,1a40.55,40.55,0,0,0-10.82,2.83A26.54,26.54,0,0,0,225,17.78c-4.15,5.43-4.15,12,.06,16.67a16.33,16.33,0,0,0,8.44,4.72,34.9,34.9,0,0,0,15.42.39c.81-.15,1,.08,1,.77.11,1.1.25,2.21.42,3.31.09.58-.11.76-.68.84A47.41,47.41,0,0,1,243.22,45Z"/><path d="M6.93,14.1c0,2.08,0,4.15,0,6.23,0,.87.19,1.17,1.12,1.15q6-.11,12-.49c.92-.06,1.3.12,1.25,1.11a10,10,0,0,0,.15,2.38c.22,1.13-.24,1.32-1.27,1.28-3.95-.13-7.9-.13-11.86-.27-1.14,0-1.37.35-1.35,1.4C7,32.24,7,37.6,7.06,43c0,.85-.21,1.08-1,1-1.79-.07-3.59,0-5.39,0C.16,44,0,44,0,43.33.63,34.56.61,25.78.49,17,.43,12.44.43,7.89.27,3.34c0-.62.1-.82.76-.84,6.7-.22,13.4-.45,20.1-.76,1,0,1.17.33,1.2,1.12,0,.59.05,1.19.06,1.79,0,1.85,0,1.83-1.88,1.86-4.23.06-8.46.17-12.7.22-.67,0-.9.23-.89.9C7,9.78,6.93,11.94,6.93,14.1Z"/><path d="M224.2,262.69a96.65,96.65,0,0,0-11-.55c-.62,0-1.15,0-1-1a87.82,87.82,0,0,0,.47-10.51q0-14.31-.06-28.63c0-1.2-.09-2.39-.17-3.59,0-.63.18-.84.81-.83,1.88,0,3.76.06,5.63,0,.94,0,1,.37,1,1.12-.32,4.38-.38,8.77-.43,13.16-.08,8.19,0,16.37-.08,24.56,0,.82.36.89,1,.88,5-.08,10-.11,15-.23.83,0,1.06.16,1,.95q-.09,1.86,0,3.72c0,.74-.24.94-1,.93C231.62,262.67,227.91,262.69,224.2,262.69Z"/><path d="M259.34,23.9q0-9.4,0-18.82c0-2.56,0-2.56,2.53-2.56.88,0,1.76.06,2.63,0s.9.41.89,1.09c-.11,7.19-.36,14.37-.26,21.56.08,5.87.14,11.74.27,17.61,0,1-.27,1.3-1.26,1.23a27,27,0,0,0-3.71,0c-.84,0-1.07-.19-1.07-1,.07-5.63.07-11.26.09-16.9V23.9Z"/><path class="cls-1" d="M170.84,97.4l-1.74,1.87c.48.23.8-.13,1.18-.15s.86-.51,1,.21-.11,1-.81,1c-.09,0-.19.09-.37.18a52.62,52.62,0,0,0,2.9,4.42,22.56,22.56,0,0,1,2.3,3.9,25.92,25.92,0,0,1,2.73,10.43q.15,2.86.45,5.73a40.42,40.42,0,0,0,1.07,4.13c.88,4.1-.74,7.39-3,10.54-.25.35-.55.66-1,1.15-.21-1.28-.77-1.47-1.78-.95-.66.35-.63-.35-.7-.74s.08-1-.59-1.3c-1.1-.44-1.29-.29-1.26.88.05,2.31,0,4.63.06,7,0,.32-.18.77.3.92a1,1,0,0,0,.7,0c.42-.26.13-.63.07-1a12.41,12.41,0,0,1-.31-2c0-.52-.56-1.26.08-1.53a10.67,10.67,0,0,1,2.78-.59c.32-.05.27.34.26.55-.12,3,.34,6-.43,9-.2.75-.47,1-1.19.94s-1,.21-.73.89a7.22,7.22,0,0,0,.87,2.2,2.64,2.64,0,0,1-1.2,3.71c-.32.14-.7.19-.94.57a1.81,1.81,0,0,0,.29.34,3.1,3.1,0,0,1,1.4,3.28c-.28,1.71.91,3.21.72,4.94a2.3,2.3,0,0,1-.78,1.76,10,10,0,0,0-3.83,8.68,4.5,4.5,0,0,1-.28,1.53c-1,3.07-2,6.27-3.89,8.84-2.81,3.79-6.35,6.84-11.39,7.4-2.06.23-4.1.72-6.16.86a7.27,7.27,0,0,1-5.58-2c-.26-.25-.22-.59-.3-.89a68,68,0,0,1-2-14.05c-.15-2-.26-4.31-1.43-6.22l-.06-.1c-.68-1.39-.66-2.82.06-3.33s2.81-.16,3.69.63a1.23,1.23,0,0,1,.49,1,40.73,40.73,0,0,0,.64,9.28,29.43,29.43,0,0,0,1.16,2.71,16.29,16.29,0,0,1,1,2.73c.12.95,1.47,1.33,2.67.93a2,2,0,0,0,1-2.11c-.05-.18-.14-.31-.31-.28-1.25.22-1.07-.78-1.19-1.44-.27-1.44-.21-2.94-1-4.28a1,1,0,0,1,.28-1.3,3.72,3.72,0,0,0,.84-1.42c-1.23.15-1.32-.6-1.46-1.45a44.24,44.24,0,0,1-.46-6.8,24.62,24.62,0,0,1,.53-4.38,2.31,2.31,0,0,1,1.45-1.64,1,1,0,0,0,.64-1.13c-.15-.69-.7-.35-1.08-.39-1.26-.14-2.11.82-3.16,1.26a.56.56,0,0,0-.27.62,12.61,12.61,0,0,1-.48,3.66c-.15.72-.33,1.13-1.12,1.25s-1.66.23-1.77,1.47c-.05.55-1,.26-1.51.26a1,1,0,0,1-1-1,5.27,5.27,0,0,1,.11-2.5c1-2.25.9-4.67,1.19-7,0-.31-.08-.69.26-.87,1.53-.83,2.29-2.59,4-3.2a1.61,1.61,0,0,0,1.13-1.64c0-.67.28-1.33.31-2,.06-1,.23-1.72,1.42-1.8.44,0,.64-.42.66-.87a1,1,0,0,0-.48-1,3.19,3.19,0,0,0-.89-.33c-.58-.08-.53-.49-.54-.89s.24-.57.61-.52c.71.08.75-.33.76-.88a6.12,6.12,0,0,0-1-4.09,1.4,1.4,0,0,1-.36-1.34c.52-1.17-.13-2-.69-2.85-.28-.44-.84-1,.23-1.18.5-.1.3-.4.11-.6a7.47,7.47,0,0,0-1.46-1.41c-3.88-2.23-6.55-5.67-9.37-9a22.85,22.85,0,0,1-1.94-3.38,47.1,47.1,0,0,0-4.85-7,.61.61,0,0,1-.19-.74c.13-.29.7-.69,0-1s-1.12-.91-1.83-.24a1.85,1.85,0,0,1-1.92.21c-.54-.17-.25-.85-.26-1.29,0-1.4,0-2.8,0-4.2a1.68,1.68,0,0,1,1.1-1.89,1.15,1.15,0,0,0,.84-1.38,3.47,3.47,0,0,1,1-3,2.55,2.55,0,0,0,1-2.1.36.36,0,0,1,.44-.43c.85.14,1.16-.48,1.56-1a20.29,20.29,0,0,1,6.38-6.23,1.74,1.74,0,0,0,.58-.41c1.54-2.25,3.83-2.25,6.2-2.15s4.74-.24,7,.52c1.9.63,4,.77,5.74,1.53a27.81,27.81,0,0,1,5.1,2.78c1.59,1.12,3.2,2.2,4.81,3.29.49.34.8.31.78-.4s-.16-1.5.71-1.69a2.24,2.24,0,0,1,2.37.71C169.16,95.93,169.68,97,170.84,97.4Zm-7.13,69.14,0,.08-.05-.07c-.33-.79-1.11-1.38-1-2.36a4.49,4.49,0,0,0-.57-2.87c-1-1.72-.7-3.52-.63-5.32a4.29,4.29,0,0,1,1.89,2.89c.09,1.42,1.19,2.19,1.92,3.18.28.38.88.3,1.24.13s0-.65,0-.94a15,15,0,0,1-.51-3.89c0-1,.62-2.38-1.28-2.36,0,0-.06,0-.09-.07-1-.8-1.57-4.2-.87-5.35.36-.58,0-.93-.29-1.25s-.66.06-.85.28a6.1,6.1,0,0,1-2,1.7c-.38.18-.4.47-.17.78,1.11,1.48,1,3.2,1,4.91-1.33-.13-1.94.56-2.32,1.79-.27.89-.32,1.39.94,1.33-.83,1-.45,1.5.37,2,.47.27,1,.59,1,1.26-.16,1.34.61,2.35,1.12,3.45A1,1,0,0,0,163.71,166.54ZM157.28,182a9.94,9.94,0,0,0,.79-1.93c.12-.92.57-2.1-.3-2.69a2.13,2.13,0,0,1-.87-2.13c0-.45.17-1-.41-1.26a2.86,2.86,0,0,1-1.53-3.05c.29-1.8-1.58-3.09-.83-4.88.08-.19-.25-.56-.4-.84l-1.5-3c-.15-.28.3-.93-.43-.83a.87.87,0,0,0-.79,1c0,1.16,0,2.32,0,3.47s0,1.89-1.31,2.22a8.8,8.8,0,0,1,1,.69c.47.44.34,1.36-.21,1.38-.88,0-.62.42-.39.88a7.66,7.66,0,0,1,.37,1,89.18,89.18,0,0,0,2.43,8.61,11.69,11.69,0,0,1,.71,4.21v2.07a1.31,1.31,0,0,0,.61-1.41c0-1.84,0-3.67,0-5.51,0-.61.13-1.12.81-1.27s.78.4,1,.82Zm-13.44-54.3a4.16,4.16,0,0,0,2.29,3.79,3.65,3.65,0,0,1,2.23,2.88c0,.5.35.54.75.53s.55-.26.55-.7a2.59,2.59,0,0,0-1.42-2.73,15.5,15.5,0,0,1-1.84-1.32A.86.86,0,0,1,146,129c.43-1.47-.1-2.05-1.66-2C143.85,127.07,143.82,127.32,143.84,127.67Zm6.63-10.45c-.48-.13-.76.13-.72.83s0,1.19,0,1.78c0,.24,0,.56.31.54a2.44,2.44,0,0,0,1.8-.78c.67-.72-.11-1.23-.18-1.84S151.09,117.26,150.47,117.22Zm22.79,32.18c0-.16,0-.32,0-.48a1.12,1.12,0,0,0-1-1.37c-.66-.08-.38.72-.67,1a1.09,1.09,0,0,0-.18.56c-.12.8-.09,1.68.89,1.77S173.29,150.14,173.26,149.4ZM161.4,146c.39-1.43-.42-1.83-1.3-1.81-1,0-.45,1-.58,1.55-.25,1,.69,1.28,1.43,1.29C161.88,147.1,161.26,146.21,161.4,146Zm-11.7-41.16c.27.93.41,1.67.69,2.36a1,1,0,0,0,1.11.74,1.14,1.14,0,0,0,.31-2.06C151.19,105.6,150.55,105.3,149.7,104.88Zm11.58,4.23c-.17-1.16-1-2.1-1.06-3.15-.09-1.32-.81-1.94-1.85-2.7a4,4,0,0,0,1,2.54,2.06,2.06,0,0,1,.82,2C160.07,108.57,160.44,109,161.28,109.11Zm-21.13,18.57c.38,0,.66,0,.93,0,.46,0,.78-.06.77-.64s-.26-.7-.74-.69a2.87,2.87,0,0,0-.83,0c-.59.17-1.68-.55-1.64.7S139.71,127.43,140.15,127.68ZM156,156.4l-1.52,1.89c-.21.28-.37.58.14.69.7.15,1.32.71,2.11.43,0,0,0-.23,0-.34C156.45,158.24,156.23,157.4,156,156.4Zm4.83-1.41c-.69-.62-1.14-1.05-1.62-1.45-.31-.26-.5-.8-1.07-.55a.87.87,0,0,0-.51.88,1.11,1.11,0,0,0,.84,1A5.75,5.75,0,0,0,160.79,155Zm4.34-18.89c-.67.29-1.57-.45-1.61.64a6.9,6.9,0,0,0,.51,2.19c.14.47.48.3.75.1s.75-.19.3-.63C164.39,137.73,164.7,137.05,165.13,136.1ZM139.34,93.56l2.94-.43.35-.07c.18-.06.39-.11.43-.34a.36.36,0,0,0-.21-.38A3.26,3.26,0,0,0,139.34,93.56Zm24.09,33.89c-.08-.41-.34-.92-.85-.88a1,1,0,0,0-1.05,1.2c.06.48.29,1,.81,1A1.17,1.17,0,0,0,163.43,127.45Zm6.82.57c1.12-.64,1.37-1.31.86-2.38-.19-.41-.46-.93-.85-.92s-.4.67-.61,1-.15.54.28.54.58.26.51.7S170.11,127.64,170.25,128ZM149,114.24c.05-.52.05-.94-.68-.93s-.62.53-.64,1,0,.94.7.93S149,114.67,149,114.24Zm17,26.42c.74,0,1.17,0,1.6,0,.67.07.91,0,.67-.81-.32-1-.65-1-1.27-.27C166.79,139.88,166.51,140.14,166,140.66Zm-10-24.2c-.18-.58-.51-1.12-.69-1.72-.11-.35-.55,0-.73.22s.79,1.89,1.05,1.9S156,116.69,156.05,116.46Zm4.73,51.11c0-.42-.07-.7-.56-.7s-.64.19-.63.64.07.69.58.69S160.83,168,160.78,167.57ZM134.12,96.74a6.22,6.22,0,0,0,2-1.61C134.8,95,134.32,95.7,134.12,96.74Zm19.2,14.84c0-.72-.45-1-1.1-.89-.23,0-.58,0-.46.35.19.54.77.45,1.2.59C153.05,111.66,153.18,111.6,153.32,111.58Zm-14.79-12c0-.23-.16-.49-.42-.45-.6.1-.51.71-.7,1.11s.11.32.33.31C138.35,100.57,138.27,100,138.53,99.62Zm28.36,63.1c.07.71-.49,1.63.59,2.18A3.57,3.57,0,0,0,166.89,162.72ZM154.7,124.61c-.07-.5.52-1.13-.23-1.45-.14-.07-.52,0-.53.11C153.86,123.87,154.25,124.25,154.7,124.61Zm-6.87-21.36c.53.13.94.4,1.15-.12.09-.21.12-.67-.16-.71C148.34,102.35,148.19,102.85,147.83,103.25Z"/><path class="cls-1" d="M130.42,75.89c.8,0,1,.33,1,1a19.83,19.83,0,0,0,0,2,3,3,0,0,0,.51,2.13,1.79,1.79,0,0,1,0,2c-.36.45-1.21.28-1.81.06s-1.44-.66-2.27-1.05c0,.81,0,1.53.89,1.67.75.11.49.72.64,1.1s0,.74-.49.92c-.81.3-1.59.66-2.55,1.06,1.93.35,2,.45,1.4,2.21-.35,1-.89,1.9-2.12,2-.37,0-.73,0-.74-.52A2.6,2.6,0,0,0,122.41,88a4.18,4.18,0,0,1-3.1-2.53,3.75,3.75,0,0,0-1.78-2c-.25-.12-.54-.23-.55-.57,0-1.8-1.12-3.46-.7-5.33a2.31,2.31,0,0,0,0-.83c-.44-2.59.86-4.9,1.21-7.36.08-.58.53-.65,1-.58.94.15,1.18-.29,1.1-1.15s0-1.51,0-2.27c0-1.25.4-1.76,1.64-1.85a21,21,0,0,1,6.5.8,1.83,1.83,0,0,1,1.41,1.45c.34,1.36,1.25,2.45,1.78,3.74.69,1.71.33,3.39.42,5.07C131.35,75.08,130.73,75.27,130.42,75.89Z"/><path class="cls-1" d="M136.16,74.92c.78-.68,1.53-1.27,2.22-1.92.46-.43,1-.78.39-1.64s.51-2.34,1.41-2.75c2.14-1,4.13-.36,6.14.39.53.19.91.5.8,1.15-.24,1.37.48,2.21,1.54,2.95a2.67,2.67,0,0,1,.68,3.81c-.33.48,0,.71.2.88,2.14,1.63,1.34,3.64.77,5.63a1,1,0,0,1-.46.66c-1.46.9-2.73,2.18-4.75,1.73a11.09,11.09,0,0,0-3.1,0c-2.63.21-3.27-1.68-2.62-3.63.38-1.15.47-1.65-1-1.57-.85,0-2.38-2.67-1.88-3.27C137.34,76.31,137.17,75.56,136.16,74.92Z"/><path class="cls-1" d="M154.86,81.87c0-1-.06-1.92,0-2.87.14-1.73,3.66-5.4,5.38-5.67a3.26,3.26,0,0,1,3.71,2.1,1.48,1.48,0,0,0,.39.72c1.68,1.21,1,3,1,4.51a4.24,4.24,0,0,1-1.66,3.54c-1,.72-.91.94.21,1.44.34.15.93-.06.94.66a1.34,1.34,0,0,1-.72,1.27l-.5.32c-1.4.92-2,.78-2.89-.61S160.18,85.8,159,87c-1.37,1.38-2.55,1.19-3.39-.52C154.86,85,154.86,85,154.86,81.87Z"/><path class="cls-1" d="M169.3,90.47c-.7-2.23,1.27-3.51,2.44-5.15a.67.67,0,0,1,.28-.21,4.08,4.08,0,0,1,5.83,3.83,7.3,7.3,0,0,1-1.08,4.54,1.5,1.5,0,0,0-.15.57c-.1.53.3,1.3-.26,1.55a10.86,10.86,0,0,1-2.76.7c-.62.1-.63-.55-.73-.92-.23-.85-.63-1-1.46-.7-1.44.52-1.46.47-1.9-1a3.43,3.43,0,0,1-.2-.81C169.29,92.16,169.3,91.44,169.3,90.47Z"/></g></g></svg>